<?xml version="1.0" standalone="no"?>
<!DOCTYPE svg PUBLIC "-//W3C//DTD SVG 20010904//EN"
 "http://www.w3.org/TR/2001/REC-SVG-20010904/DTD/svg10.dtd">
<svg version="1.0" xmlns="http://www.w3.org/2000/svg"
 width="414.000000pt" height="414.000000pt" viewBox="0 0 414.000000 414.000000"
 preserveAspectRatio="xMidYMid meet">
<metadata>
Created by potrace 1.14, written by Peter Selinger 2001-2017
</metadata>
<g transform="translate(0.000000,414.000000) scale(0.100000,-0.100000)"
fill="#000000" stroke="none">
<path d="M1973 3511 c10 -12 9 -13 -7 -4 -14 7 -26 7 -44 -3 -14 -7 -29 -11
-34 -8 -4 3 -8 0 -8 -6 0 -6 -4 -8 -10 -5 -5 3 -10 0 -10 -7 0 -9 -3 -9 -10 2
-9 13 -14 7 -11 -12 0 -4 -5 -5 -12 -2 -7 2 -26 -6 -42 -20 -16 -14 -32 -23
-36 -20 -4 2 -20 -9 -35 -25 -15 -17 -31 -28 -35 -25 -4 2 -11 -1 -15 -7 -5
-8 -3 -9 7 -4 12 8 12 6 0 -8 -7 -9 -18 -14 -24 -10 -7 4 -8 0 -3 -12 5 -15 4
-16 -9 -5 -9 7 -15 9 -14 4 4 -22 -2 -34 -18 -34 -15 0 -16 -2 -3 -10 14 -9 7
-15 -14 -11 -5 1 -4 -4 2 -12 10 -11 9 -17 -5 -28 -17 -13 -17 -13 -3 6 14 19
14 19 -2 6 -10 -7 -18 -20 -18 -28 0 -8 -5 -11 -12 -7 -6 4 -8 3 -4 -4 3 -6
-4 -21 -16 -33 -13 -12 -16 -18 -8 -14 11 6 10 3 -3 -12 -9 -11 -14 -23 -10
-28 5 -4 3 -5 -4 -1 -7 4 -17 -2 -23 -14 -6 -11 -7 -20 -3 -20 4 0 -2 -7 -13
-16 -10 -8 -14 -13 -7 -9 9 4 8 -2 -2 -21 -7 -15 -11 -33 -8 -40 3 -8 0 -14
-7 -14 -9 0 -9 -4 1 -17 12 -14 12 -16 0 -8 -11 6 -13 4 -7 -11 4 -10 10 -31
13 -46 3 -16 8 -28 12 -28 4 0 8 -9 9 -20 4 -44 6 -50 16 -50 6 0 5 -4 -2 -9
-11 -6 -10 -10 3 -15 14 -5 15 -9 5 -21 -10 -12 -10 -15 0 -15 7 0 10 -6 7
-14 -3 -8 -2 -16 3 -18 5 -2 10 -22 11 -45 2 -24 8 -43 13 -43 6 0 4 -5 -4
-10 -12 -8 -12 -10 -1 -10 8 0 12 -3 8 -6 -3 -4 0 -19 9 -35 8 -16 12 -29 9
-29 -3 0 0 -10 6 -22 7 -13 14 -54 16 -93 4 -102 8 -139 16 -151 3 -6 3 -14 0
-18 -19 -19 -21 -366 -2 -366 4 0 6 -10 5 -22 -1 -15 4 -22 13 -20 11 2 12 0
3 -11 -7 -9 -8 -17 -2 -23 6 -6 11 -22 12 -36 1 -15 6 -24 10 -22 4 3 8 -6 8
-19 0 -14 7 -30 15 -37 8 -7 13 -16 10 -20 -3 -5 -1 -11 5 -15 5 -3 10 -16 10
-27 0 -12 7 -29 15 -38 9 -10 18 -27 20 -40 2 -12 8 -27 13 -34 5 -6 8 -28 8
-48 -1 -21 4 -38 9 -38 6 0 5 -4 -1 -8 -7 -4 -11 -29 -10 -57 1 -27 -2 -56 -7
-62 -5 -7 -7 -20 -3 -28 3 -8 1 -15 -4 -15 -6 0 -10 -7 -10 -15 0 -8 -7 -15
-15 -15 -8 0 -15 -4 -15 -9 0 -4 -11 -7 -25 -6 -14 2 -25 -1 -25 -6 0 -6 -5
-7 -10 -4 -6 3 -13 -1 -16 -9 -3 -9 -10 -13 -15 -10 -5 3 -9 1 -9 -4 0 -6 -14
-15 -31 -21 -19 -7 -28 -15 -23 -22 4 -7 3 -9 -4 -5 -6 3 -16 1 -24 -6 -7 -7
-22 -13 -33 -13 -11 0 -26 -5 -33 -12 -8 -7 -18 -11 -23 -8 -5 4 -9 1 -9 -5 0
-6 -5 -8 -11 -5 -5 4 -20 -1 -31 -12 -14 -12 -18 -13 -13 -3 7 12 6 13 -6 4
-8 -7 -33 -18 -56 -25 -24 -6 -43 -16 -43 -22 0 -5 -6 -7 -14 -4 -7 3 -26 -1
-40 -8 -15 -8 -46 -17 -69 -20 -62 -8 -110 -15 -127 -19 -45 -9 -77 -21 -96
-33 -11 -7 -24 -10 -27 -6 -4 3 -7 1 -7 -5 0 -7 -3 -11 -7 -10 -12 3 -97 -24
-112 -36 -7 -6 -19 -11 -25 -12 -24 -2 -76 -27 -76 -37 0 -6 -3 -7 -6 -4 -4 4
-20 -3 -36 -14 -16 -12 -36 -22 -46 -23 -16 -3 -17 -34 -20 -404 l-2 -402
1550 0 1550 0 0 475 c0 373 -3 475 -12 476 -7 0 -26 3 -43 6 -16 2 -42 5 -57
6 -14 1 -24 5 -22 8 2 4 -3 10 -12 13 -10 4 -13 2 -8 -7 6 -9 5 -9 -7 0 -8 6
-27 13 -44 16 -40 7 -68 18 -77 31 -5 7 -8 6 -8 -2 0 -10 -4 -9 -16 3 -9 9
-22 14 -29 11 -8 -3 -16 2 -19 10 -3 9 -10 12 -16 9 -5 -3 -10 -1 -10 4 0 6
-5 11 -10 11 -6 0 -32 10 -58 21 -26 12 -60 27 -77 34 -16 8 -33 11 -37 9 -4
-3 -8 -1 -8 5 0 5 -16 15 -35 22 -19 7 -35 17 -35 21 0 4 -9 8 -21 8 -11 0
-17 4 -14 10 3 5 -3 10 -15 10 -14 0 -19 4 -14 13 4 6 4 9 0 6 -4 -4 -34 1
-67 11 -32 10 -59 16 -59 14 0 -3 -10 4 -22 16 -12 11 -26 20 -30 20 -5 0 -6
5 -3 10 3 6 1 10 -5 10 -6 0 -8 5 -5 10 3 6 2 10 -2 10 -8 0 -13 31 -16 88 0
6 -3 12 -6 12 -3 0 -6 18 -5 40 0 22 -3 40 -6 40 -7 0 -3 44 7 70 4 8 5 21 4
28 -1 6 3 12 9 12 6 0 9 4 6 9 -3 5 4 20 15 35 11 14 17 26 14 26 -4 0 -2 7 5
15 6 8 9 19 5 25 -3 5 0 13 8 16 7 2 14 11 15 19 1 8 3 22 4 30 1 8 6 15 11
15 6 0 7 3 4 7 -4 3 -2 12 4 20 9 10 8 13 -2 13 -9 0 -10 3 -4 8 6 4 12 14 14
22 7 29 7 165 0 193 -5 16 -4 27 2 27 6 0 7 5 3 11 -3 6 -7 32 -8 58 -1 26 -6
53 -11 60 -5 9 -4 12 2 8 7 -4 10 11 9 43 -1 28 3 50 7 50 5 0 7 7 4 15 -4 8
-2 17 3 20 7 4 6 13 0 25 -7 13 -7 21 0 25 5 3 10 17 10 31 0 14 4 22 10 19 6
-3 7 1 4 9 -3 9 -11 13 -18 9 -6 -4 -5 0 2 9 7 9 15 29 18 45 3 15 10 33 16
38 8 7 9 6 3 -4 -6 -10 -4 -12 4 -7 9 6 9 11 0 22 -9 11 -9 14 1 14 8 0 10 3
7 7 -4 3 0 17 9 31 9 13 11 21 5 17 -8 -5 -10 1 -5 21 5 21 4 25 -7 20 -8 -4
-6 -1 4 7 11 9 14 18 8 21 -7 5 -7 15 -1 32 6 14 6 23 1 20 -4 -3 -8 8 -7 24
1 17 4 30 7 30 3 0 4 12 2 28 -2 15 -5 33 -5 40 -1 6 -6 12 -11 12 -6 0 -7 3
-4 6 4 4 -2 19 -13 34 -21 30 -44 81 -42 92 1 5 -1 7 -6 7 -22 -4 -34 3 -28
16 3 8 1 15 -4 15 -6 0 -10 7 -10 15 0 8 -5 15 -11 15 -5 0 -7 -5 -3 -12 4 -6
3 -8 -4 -4 -6 3 -9 15 -7 26 3 13 -1 17 -11 13 -7 -3 -11 -10 -7 -17 8 -14
-26 12 -49 38 -10 10 -15 24 -11 30 3 6 3 8 -2 4 -4 -4 -13 -1 -20 5 -15 16
-48 77 -40 77 3 0 -4 9 -15 20 -11 11 -26 20 -32 20 -9 0 -8 4 2 10 13 8 12
10 -2 10 -10 0 -18 5 -18 10 0 6 -7 10 -17 10 -14 0 -14 -2 2 -20 17 -18 17
-20 2 -14 -17 6 -21 16 -18 42 3 18 -29 41 -46 35 -8 -3 -13 -2 -12 3 3 18 -1
34 -8 32 -15 -4 -53 13 -53 23 0 6 5 7 12 3 7 -4 8 -3 4 5 -6 9 -11 9 -22 0
-11 -9 -14 -9 -14 0 0 7 -8 11 -17 10 -30 -2 -44 1 -40 9 5 7 -31 12 -98 12
-31 0 -44 4 -40 11 3 4 -2 9 -10 12 -9 4 -12 1 -8 -9 3 -7 0 -14 -6 -14 -6 0
-11 6 -11 13 0 8 -4 7 -10 -3 -5 -8 -10 -10 -10 -5 0 6 -15 12 -32 13 -35 3
-73 9 -73 13 0 1 -12 2 -27 3 -23 2 -25 0 -15 -13z m522 -141 c3 -5 -1 -10 -9
-10 -9 0 -16 5 -16 10 0 6 4 10 9 10 6 0 13 -4 16 -10z"/>
</g>
</svg>
